<svg width="231" height="128" viewBox="0 0 231 128" fill="none" xmlns="http://www.w3.org/2000/svg">
<path d="M52.104 97.864C47.048 97.864 42.344 97.288 37.992 96.136C33.64 94.92 30.088 93.224 27.336 91.048C26.376 90.344 25.672 89.608 25.224 88.84C24.84 88.008 24.648 86.984 24.648 85.768C24.648 84.168 25.128 82.76 26.088 81.544C27.112 80.328 28.264 79.72 29.544 79.72C30.248 79.72 30.92 79.848 31.56 80.104C32.264 80.296 33.096 80.68 34.056 81.256C36.808 82.984 39.592 84.264 42.408 85.096C45.224 85.864 48.328 86.248 51.72 86.248C55.944 86.248 59.176 85.544 61.416 84.136C63.656 82.728 64.776 80.712 64.776 78.088C64.776 76.104 63.72 74.504 61.608 73.288C59.56 72.072 55.88 70.92 50.568 69.832C44.616 68.616 39.848 67.144 36.264 65.416C32.744 63.688 30.152 61.544 28.488 58.984C26.888 56.424 26.088 53.32 26.088 49.672C26.088 45.64 27.24 42.024 29.544 38.824C31.912 35.56 35.144 33.032 39.24 31.24C43.4 29.384 48.072 28.456 53.256 28.456C62.344 28.456 69.832 30.728 75.72 35.272C76.68 36.04 77.352 36.84 77.736 37.672C78.184 38.44 78.408 39.4 78.408 40.552C78.408 42.152 77.896 43.56 76.872 44.776C75.912 45.992 74.792 46.6 73.512 46.6C72.808 46.6 72.136 46.504 71.496 46.312C70.92 46.12 70.088 45.704 69 45.064C66.376 43.4 63.944 42.152 61.704 41.32C59.528 40.488 56.744 40.072 53.352 40.072C49.448 40.072 46.376 40.84 44.136 42.376C41.896 43.848 40.776 45.896 40.776 48.52C40.776 50.056 41.192 51.336 42.024 52.36C42.92 53.32 44.36 54.184 46.344 54.952C48.392 55.72 51.272 56.52 54.984 57.352C63.688 59.272 69.928 61.736 73.704 64.744C77.544 67.752 79.464 71.88 79.464 77.128C79.464 81.224 78.312 84.84 76.008 87.976C73.768 91.112 70.568 93.544 66.408 95.272C62.312 97 57.544 97.864 52.104 97.864Z" fill="#45A5AD"/>
<path d="M111.52 69.328C112.416 69.328 113.12 69.584 113.632 70.096C114.176 70.576 114.448 71.248 114.448 72.112V81.472C114.448 82.752 114.336 83.744 114.112 84.448C113.92 85.152 113.568 85.712 113.056 86.128C112.544 86.544 111.776 86.896 110.752 87.184C109.504 87.568 108.064 87.872 106.432 88.096C104.832 88.32 103.312 88.432 101.872 88.432C98.288 88.432 95.184 87.744 92.56 86.368C89.936 84.96 87.92 82.96 86.512 80.368C85.104 77.744 84.4 74.64 84.4 71.056C84.4 67.536 85.088 64.48 86.464 61.888C87.872 59.264 89.872 57.248 92.464 55.84C95.056 54.432 98.08 53.728 101.536 53.728C105.984 53.728 109.664 54.88 112.576 57.184C113.056 57.568 113.392 57.952 113.584 58.336C113.776 58.72 113.872 59.2 113.872 59.776C113.872 60.608 113.632 61.328 113.152 61.936C112.704 62.512 112.16 62.8 111.52 62.8C111.104 62.8 110.72 62.736 110.368 62.608C110.048 62.48 109.648 62.272 109.168 61.984C107.824 61.152 106.592 60.56 105.472 60.208C104.352 59.856 103.12 59.68 101.776 59.68C95.248 59.68 91.984 63.472 91.984 71.056C91.984 74.96 92.832 77.872 94.528 79.792C96.224 81.712 98.784 82.672 102.208 82.672C104.064 82.672 105.904 82.432 107.728 81.952V74.512H103.312C102.384 74.512 101.664 74.288 101.152 73.84C100.64 73.392 100.384 72.752 100.384 71.92C100.384 71.088 100.64 70.448 101.152 70C101.664 69.552 102.384 69.328 103.312 69.328H111.52ZM124.302 88C123.182 88 122.318 87.696 121.71 87.088C121.102 86.48 120.798 85.616 120.798 84.496V57.616C120.798 56.496 121.134 55.6 121.806 54.928C122.478 54.256 123.39 53.92 124.542 53.92C125.694 53.92 126.606 54.256 127.278 54.928C127.95 55.6 128.286 56.496 128.286 57.616V81.904H140.574C142.91 81.904 144.078 82.928 144.078 84.976C144.078 86.992 142.91 88 140.574 88H124.302ZM151.348 88C150.228 88 149.364 87.696 148.756 87.088C148.148 86.48 147.844 85.616 147.844 84.496V57.664C147.844 56.544 148.148 55.68 148.756 55.072C149.364 54.464 150.228 54.16 151.348 54.16H168.34C170.708 54.16 171.892 55.12 171.892 57.04C171.892 58.992 170.708 59.968 168.34 59.968H155.14V67.888H167.38C169.748 67.888 170.932 68.864 170.932 70.816C170.932 72.736 169.748 73.696 167.38 73.696H155.14V82.192H168.34C170.708 82.192 171.892 83.168 171.892 85.12C171.892 87.04 170.708 88 168.34 88H151.348ZM197.706 82.096C198.922 82.096 199.818 82.336 200.394 82.816C200.97 83.296 201.258 84.032 201.258 85.024C201.258 86.048 200.97 86.8 200.394 87.28C199.818 87.76 198.922 88 197.706 88H177.882C176.89 88 176.09 87.712 175.482 87.136C174.906 86.528 174.618 85.776 174.618 84.88C174.618 83.952 174.938 83.056 175.578 82.192L191.562 60.064H178.218C177.002 60.064 176.106 59.824 175.53 59.344C174.954 58.864 174.666 58.128 174.666 57.136C174.666 56.112 174.954 55.36 175.53 54.88C176.106 54.4 177.002 54.16 178.218 54.16H197.322C198.314 54.16 199.098 54.464 199.674 55.072C200.282 55.648 200.586 56.384 200.586 57.28C200.586 58.24 200.282 59.136 199.674 59.968L183.642 82.096H197.706Z" fill="white"/>
</svg>
